<?xml version="1.0" encoding="utf-8"?>
<!-- Generator: Adobe Illustrator 20.0.0, SVG Export Plug-In . SVG Version: 6.00 Build 0)  -->
<svg version="1.1" id="레이어_1" xmlns="http://www.w3.org/2000/svg" xmlns:xlink="http://www.w3.org/1999/xlink" x="0px"
	 y="0px" viewBox="0 0 50.4 43.7" style="enable-background:new 0 0 50.4 43.7;" xml:space="preserve">
<style type="text/css">
	.st0{fill:#333333;}
</style>
<path class="st0" d="M0.8,7.5l3.9-6.8h7.9l3.9,6.8l-3.9,6.8H4.7L0.8,7.5z M4.3,0L0,7.5L4.3,15H13l4.3-7.5L13,0H4.3z"/>
<path class="st0" d="M17.3,7.5l3.9-6.8h7.9l3.9,6.8l-3.9,6.8h-7.9L17.3,7.5z M20.9,0l-4.3,7.5l4.3,7.5h8.7l4.3-7.5L29.5,0H20.9z"/>
<path class="st0" d="M33.9,7.5l3.9-6.8h7.9l3.9,6.8l-3.9,6.8h-7.9L33.9,7.5z M37.4,0l-4.3,7.5l4.3,7.5h8.7l4.3-7.5L46.1,0H37.4z"/>
<path class="st0" d="M0.8,36.2l3.9-6.8h7.9l3.9,6.8L12.6,43H4.7L0.8,36.2z M4.3,28.7L0,36.2l4.3,7.5H13l4.3-7.5L13,28.7H4.3z"/>
<path class="st0" d="M17.3,36.2l3.9-6.8h7.9l3.9,6.8L29.2,43h-7.9L17.3,36.2z M20.9,28.7l-4.3,7.5l4.3,7.5h8.7l4.3-7.5l-4.3-7.5
	H20.9z"/>
<path class="st0" d="M33.9,36.2l3.9-6.8h7.9l3.9,6.8L45.7,43h-7.9L33.9,36.2z M37.4,28.7l-4.3,7.5l4.3,7.5h8.7l4.3-7.5l-4.3-7.5
	H37.4z"/>
<path class="st0" d="M21.3,29.3h-8.7l-4.3-7.5l4.3-7.5h8.7l4.3,7.5L21.3,29.3z M13,28.7h7.9l3.9-6.8L20.9,15H13L9,21.8L13,28.7z"/>
<path class="st0" d="M37.8,29.3h-8.7l-4.3-7.5l4.3-7.5h8.7l4.3,7.5L37.8,29.3z M29.5,28.7h7.9l3.9-6.8L37.4,15h-7.9l-3.9,6.8
	L29.5,28.7z"/>
</svg>
