<?xml version="1.0" encoding="utf-8"?>
<!-- Generator: Adobe Illustrator 20.0.0, SVG Export Plug-In . SVG Version: 6.00 Build 0)  -->
<svg version="1.1" id="레이어_1" xmlns="http://www.w3.org/2000/svg" xmlns:xlink="http://www.w3.org/1999/xlink" x="0px"
	 y="0px" viewBox="0 0 49.6 49.6" style="enable-background:new 0 0 49.6 49.6;" xml:space="preserve">
<style type="text/css">
	.st0{clip-path:url(#SVGID_2_);fill:#333333;}
</style>
<g>
	<defs>
		<rect id="SVGID_1_" x="0" y="0" width="49.6" height="49.6"/>
	</defs>
	<clipPath id="SVGID_2_">
		<use xlink:href="#SVGID_1_"  style="overflow:visible;"/>
	</clipPath>
	<path class="st0" d="M47.5,20.7c-0.8-0.6-1.7-1-2.8-1.3c0.8-0.8,1.4-1.6,1.8-2.5c0.7-1.6,0.6-3.2-0.2-4.5c-0.9-1.6-2.6-2.5-4.6-2.5
		c-0.7,0-1.5,0.1-2.3,0.3c1-3.3-0.2-5.8-2.2-6.9c-0.8-0.4-1.6-0.7-2.4-0.7c-1.6,0-3.2,0.8-4.6,2.3C29.3,1.5,27,0,24.8,0
		s-4.5,1.5-5.3,4.9c-1.4-1.5-3-2.3-4.6-2.3c-0.9,0-1.7,0.2-2.4,0.7C11,4.1,10.1,5.5,9.9,7.2c-0.1,1,0,2,0.3,3.1
		C9.5,10,8.7,9.9,7.9,9.9c-2.1,0-3.7,0.9-4.6,2.5c-0.8,1.4-0.9,3-0.2,4.5c0.4,0.9,1,1.7,1.8,2.5C1.5,20.3,0,22.5,0,24.8
		c0,1.6,0.7,3,2.1,4c0.8,0.6,1.7,1,2.8,1.3c-0.8,0.8-1.4,1.6-1.8,2.5c-0.7,1.6-0.6,3.2,0.2,4.5c0.9,1.6,2.6,2.5,4.6,2.5
		c0.7,0,1.5-0.1,2.3-0.3c-0.3,1.1-0.4,2.1-0.3,3.1c0.2,1.7,1.1,3,2.4,3.8c0.8,0.4,1.6,0.7,2.4,0.7c1.6,0,3.2-0.8,4.7-2.3
		c0.3,1.1,0.7,2,1.3,2.8c1,1.4,2.4,2.1,4,2.1c1.6,0,3-0.7,4-2.1c0.6-0.8,1-1.7,1.3-2.8c1.4,1.5,3,2.3,4.7,2.3c0.9,0,1.7-0.2,2.4-0.7
		c1.4-0.8,2.2-2.2,2.4-3.8c0.1-1,0-2-0.3-3.1c0.8,0.2,1.6,0.3,2.3,0.3c2.1,0,3.7-0.9,4.6-2.5c0.8-1.4,0.9-3,0.2-4.5
		c-0.4-0.9-1-1.7-1.8-2.5c1.1-0.3,2.1-0.7,2.8-1.3c1.4-1,2.1-2.4,2.1-4C49.6,23.2,48.8,21.8,47.5,20.7 M41.6,10.3
		c1.9,0,3.4,0.8,4.2,2.3c0.7,1.3,0.8,2.7,0.2,4.2c-0.4,0.9-1,1.8-1.9,2.6c-0.8-0.2-1.6-0.2-2.5-0.2c-3.8,0-11.4,3.1-15,4.6
		c3.1-2.3,9.6-7.4,11.5-10.7c0.5-0.8,0.8-1.6,1.1-2.3C40,10.5,40.8,10.3,41.6,10.3 M29.8,43.7c-0.4-0.5-0.8-1.1-1.2-1.7
		c-2-3.4-3.1-12.4-3.5-15.8c1.4,3.2,4.9,11.5,4.9,15.4C30,42.3,30,43,29.8,43.7 M19.5,41.6c0-3.9,3.5-12.3,4.9-15.4
		C24,29.6,22.9,38.6,20.9,42c-0.4,0.6-0.8,1.2-1.2,1.7C19.6,43,19.5,42.3,19.5,41.6 M5.9,29.9C6.4,29.4,7,29,7.6,28.7
		c3.4-2,12.4-3.1,15.8-3.5C20.2,26.5,11.9,30,8,30v0.2V30C7.2,30,6.5,30,5.9,29.9 M19.7,5.9c0.4,0.5,0.8,1.1,1.2,1.7
		c2,3.4,3.1,12.4,3.5,15.8C23,20.2,19.5,11.9,19.5,8C19.5,7.2,19.6,6.5,19.7,5.9 M30,8c0,3.9-3.5,12.3-4.9,15.4
		C25.5,20,26.7,11,28.7,7.6C29,7,29.4,6.4,29.8,5.9C30,6.5,30,7.2,30,8 M43.7,19.7c-0.5,0.4-1.1,0.8-1.7,1.2
		c-3.4,2-12.4,3.1-15.8,3.5c3.2-1.4,11.5-4.9,15.4-4.9C42.3,19.5,43,19.6,43.7,19.7 M25.8,23.8c2.1-2.8,7.5-10,10.9-11.9
		c0.6-0.4,1.3-0.7,1.9-0.9c-0.2,0.6-0.5,1.3-0.9,1.9C35.8,16.2,28.6,21.7,25.8,23.8 M34.8,3.1c0.8,0,1.5,0.2,2.2,0.6
		c2.1,1.2,2.8,3.8,1.9,6.7c-0.8,0.3-1.5,0.6-2.3,1.1c-3.3,1.9-8.3,8.4-10.7,11.5c1.5-3.6,4.6-11.2,4.6-15c0-0.9-0.1-1.8-0.2-2.5
		C31.6,3.9,33.2,3.1,34.8,3.1 M24.8,0.4c2.5,0,4.3,1.9,5,4.9c-0.5,0.6-1,1.3-1.5,2.1c-1.9,3.3-3,11.4-3.5,15.3
		c-0.4-3.9-1.6-12-3.5-15.3c-0.4-0.8-0.9-1.5-1.5-2.1C20.5,2.3,22.3,0.4,24.8,0.4 M10.4,7.2c0.2-1.5,1-2.8,2.2-3.5
		c0.7-0.4,1.4-0.6,2.2-0.6c1.6,0,3.2,0.8,4.5,2.3C19.2,6.2,19.1,7,19.1,8c0,3.8,3.1,11.4,4.6,15c-2.3-3.1-7.4-9.6-10.7-11.5
		c-0.8-0.4-1.6-0.8-2.3-1.1C10.4,9.3,10.3,8.2,10.4,7.2 M23.8,23.8c-2.8-2.1-10-7.5-11.9-10.9c-0.4-0.6-0.7-1.3-0.9-1.9
		c0.6,0.2,1.3,0.5,1.9,0.9C16.2,13.8,21.7,21,23.8,23.8 M3.5,16.8c-0.6-1.4-0.5-2.9,0.2-4.2c0.8-1.5,2.4-2.3,4.2-2.3
		c0.8,0,1.6,0.1,2.4,0.4c0.3,0.8,0.6,1.5,1.1,2.3c1.9,3.3,8.4,8.3,11.5,10.7c-3.6-1.5-11.2-4.6-15-4.6c-0.9,0-1.8,0.1-2.5,0.2
		C4.6,18.5,3.9,17.7,3.5,16.8 M23.4,24.4C20,24,11,22.9,7.6,20.9c-0.6-0.4-1.2-0.8-1.7-1.2c0.7-0.1,1.4-0.2,2.1-0.2
		C11.9,19.5,20.2,23,23.4,24.4 M2.4,28.5c-1.2-0.9-1.9-2.2-1.9-3.7c0-2.5,1.9-4.3,4.9-5c0.6,0.5,1.3,1,2.1,1.5
		c3.3,1.9,11.4,3,15.3,3.5c-3.9,0.4-12,1.6-15.3,3.5c-0.8,0.5-1.5,0.9-2.1,1.5C4.2,29.5,3.2,29.1,2.4,28.5 M7.9,39.2
		c-1.9,0-3.4-0.8-4.2-2.3c-0.7-1.3-0.8-2.7-0.2-4.1c0.4-0.9,1-1.8,1.9-2.6c0.8,0.2,1.6,0.2,2.5,0.2h0c3.8,0,11.4-3.1,15-4.6
		c-3.1,2.3-9.6,7.4-11.5,10.7c-0.5,0.8-0.8,1.6-1.1,2.3C9.5,39.1,8.7,39.2,7.9,39.2 M23.8,25.8c-2.1,2.8-7.5,10-10.9,11.9
		c-0.6,0.4-1.3,0.7-1.9,0.9c0.2-0.6,0.5-1.3,0.9-1.9C13.8,33.3,21,27.8,23.8,25.8 M14.8,46.5c-0.8,0-1.5-0.2-2.2-0.6
		c-1.3-0.7-2-2-2.2-3.5c-0.1-1,0-2.1,0.4-3.2c0.8-0.3,1.5-0.6,2.3-1.1c3.3-1.9,8.3-8.4,10.7-11.5c-1.5,3.6-4.6,11.2-4.6,15
		c0,0.9,0.1,1.8,0.2,2.5C18,45.6,16.4,46.5,14.8,46.5 M28.5,47.2c-0.9,1.2-2.2,1.9-3.7,1.9c-1.4,0-2.8-0.7-3.7-1.9
		c-0.6-0.8-1-1.8-1.3-2.9c0.5-0.6,1-1.3,1.5-2.1c1.9-3.3,3-11.4,3.5-15.3c0.4,3.9,1.6,12,3.5,15.3c0.5,0.8,0.9,1.5,1.5,2.1
		C29.5,45.4,29.1,46.4,28.5,47.2 M39.2,42.4c-0.2,1.5-1,2.8-2.2,3.5c-0.7,0.4-1.4,0.6-2.2,0.6c-1.6,0-3.2-0.8-4.5-2.3
		c0.2-0.8,0.2-1.6,0.2-2.5c0-3.8-3.1-11.4-4.6-15c2.3,3.1,7.4,9.6,10.7,11.5c0.8,0.4,1.6,0.8,2.3,1.1C39.2,40.3,39.3,41.4,39.2,42.4
		 M25.8,25.8c2.8,2.1,10,7.5,11.9,10.9c0.4,0.6,0.7,1.3,0.9,1.9c-0.6-0.2-1.3-0.5-1.9-0.9C33.3,35.8,27.8,28.6,25.8,25.8 M46,32.8
		c0.6,1.4,0.5,2.9-0.2,4.1c-0.8,1.5-2.4,2.3-4.2,2.3c-0.8,0-1.6-0.1-2.4-0.4c-0.3-0.8-0.6-1.5-1.1-2.3c-1.9-3.3-8.4-8.3-11.5-10.7
		c3.6,1.5,11.2,4.6,15,4.6h0h0c0.9,0,1.8-0.1,2.5-0.2C45,31,45.7,31.9,46,32.8 M26.1,25.2c3.5,0.4,12.4,1.5,15.8,3.5
		c0.6,0.4,1.2,0.8,1.7,1.2C43,30,42.3,30,41.6,30h0C37.7,30,29.3,26.5,26.1,25.2 M47.2,28.5c-0.8,0.6-1.8,1-2.9,1.3
		c-0.6-0.5-1.3-1-2.1-1.5c-3.3-1.9-11.4-3-15.3-3.5c3.9-0.4,12-1.6,15.3-3.5c0.8-0.5,1.5-0.9,2.1-1.5c1.2,0.3,2.2,0.7,2.9,1.3
		c1.2,0.9,1.9,2.2,1.9,3.7C49.1,26.2,48.4,27.5,47.2,28.5"/>
</g>
</svg>
